<svg width="256" height="95" viewBox="0 0 256 95" fill="none" xmlns="http://www.w3.org/2000/svg">
<path fill-rule="evenodd" clip-rule="evenodd" d="M77.004 38.9648C76.4744 38.965 75.9665 39.0429 75.5911 39.1815C75.2156 39.3202 75.0032 39.5083 75 39.7048V41.4345C75 41.741 75.664 41.9892 76.497 41.9892H120.503C121.33 41.9892 122 41.7417 122 41.4345V39.5196C122 39.2131 121.336 38.9648 120.503 38.9648H77.004ZM76.497 43.4179C75.67 43.4179 75 43.6655 75 43.9727V45.8876C75 46.1941 75.664 46.4424 76.497 46.4424H120.503C121.33 46.4424 122 46.1948 122 45.8876V43.9727C122 43.6662 121.336 43.4179 120.503 43.4179H76.497ZM76.497 48.2422C75.67 48.2422 75 48.4897 75 48.797V50.7118C75 51.0183 75.664 51.2666 76.497 51.2666H120.503C121.33 51.2666 122 51.0191 122 50.7118V48.797C122 48.4904 121.336 48.2422 120.503 48.2422H76.497ZM76.497 53.0664C75.67 53.0664 75 53.3139 75 53.6212V55.536C75 55.8425 75.664 56.0908 76.497 56.0908H120.503C121.33 56.0908 122 55.8433 122 55.536V53.6212C122 53.3146 121.336 53.0664 120.503 53.0664H76.497ZM63 55.8507C63 56.1576 63.667 56.4062 64.495 56.4062H69.655C70.481 56.4062 71.15 56.1598 71.15 55.8507V39.5204C71.15 39.2135 70.483 38.9648 69.655 38.9648H64.495C63.669 38.9648 63 39.2112 63 39.5204V55.8507ZM36 55.8507C36 56.1576 36.667 56.4062 37.495 56.4062H42.655C43.481 56.4062 44.15 56.1598 44.15 55.8507V39.5204C44.15 39.2135 43.483 38.9648 42.655 38.9648H37.495C36.669 38.9648 36 39.2112 36 39.5204V55.8507ZM30.15 55.8507C30.15 56.1576 29.483 56.4062 28.655 56.4062H23.495C23.2984 56.4064 23.1036 56.3921 22.922 56.3642C22.7403 56.3364 22.5752 56.2954 22.4363 56.2438C22.2974 56.1922 22.1873 56.1309 22.1124 56.0634C22.0375 55.9959 21.9993 55.9237 22 55.8507V39.5204C22 39.2135 22.667 38.9648 23.495 38.9648H28.655C29.481 38.9648 30.15 39.2112 30.15 39.5204V55.8507ZM49 55.8507C49 56.1576 49.667 56.4062 50.495 56.4062H55.655C56.481 56.4062 57.15 56.1598 57.15 55.8507V39.5204C57.15 39.2135 56.483 38.9648 55.655 38.9648H50.495C49.669 38.9648 49 39.2112 49 39.5204V55.8507ZM141.62 39.0943C141.62 39.471 141.415 56.0444 141.415 56.0444L162.233 56.0392L162.536 53.3763L148.289 53.2219L148.329 39.1407C148.329 39.1407 141.619 38.7173 141.619 39.0943H141.62ZM170.734 39.7812C169.242 39.802 167.786 40.1995 167.854 40.6088C167.921 41.0188 169.545 41.4215 171.002 41.4003C172.459 41.3799 173.798 40.9231 173.732 40.5256C173.667 40.1282 172.227 39.7597 170.734 39.7809V39.7812ZM168.177 45.2794L168.065 55.8618L174.159 55.8596L174.654 45.2222L168.177 45.2794ZM179.24 45.3565L178.815 56.0756H186.839L186.428 48.6296L189.779 47.0695L194.553 46.9934L198.311 48.4259L198.513 55.7372L206.536 55.7357L205.006 46.8094L198.956 44.9829L190.755 44.7925L185.321 46.0739L185.313 44.552L179.24 45.3565ZM210.646 37.2686L210.792 55.8771L217.089 55.9902C217.089 55.9902 218.298 50.3659 217.693 50.6673C217.089 50.969 226.936 55.7553 226.936 55.7553L236.381 55.6796L224.389 49.7121L234.341 44.9227L226.63 44.8084L218.321 48.6103L218.409 37.3246L210.646 37.2686Z" fill="black"/>
</svg>
