<svg width="60" height="60" viewBox="0 0 60 60" fill="none" xmlns="http://www.w3.org/2000/svg">
<path d="M37.131 1.00461C36.6507 0.615193 36.0953 0.328928 35.4995 0.16368C34.9037 -0.00156713 34.2802 -0.0422504 33.6679 0.0441685C33.0557 0.130587 32.4678 0.342254 31.941 0.665962C31.4142 0.98967 30.9597 1.41847 30.606 1.92561L21.48 14.9966H25.14L33.06 3.64161C33.178 3.47219 33.3297 3.32895 33.5055 3.22085C33.6814 3.11276 33.8778 3.04214 34.0822 3.01341C34.2867 2.98469 34.4948 2.99848 34.6937 3.05392C34.8926 3.10936 35.0779 3.20526 35.238 3.33561L37.662 5.30361L30.96 14.9966H34.608L39.996 7.19661L45.048 11.2976C45.3423 11.5369 45.5351 11.8789 45.5874 12.2546C45.6397 12.6304 45.5478 13.012 45.33 13.3226L44.16 14.9966H47.82C48.4561 14.0641 48.7184 12.9265 48.5551 11.8096C48.3917 10.6926 47.8145 9.67791 46.938 8.96662L37.128 1.00461H37.131ZM14.1 11.9996C12.9065 11.9996 11.7619 12.4737 10.918 13.3176C10.0741 14.1615 9.59998 15.3061 9.59998 16.4996V40.4996C9.59998 42.4887 10.3902 44.3964 11.7967 45.8029C13.2032 47.2094 15.1109 47.9996 17.1 47.9996H45.6C47.1913 47.9996 48.7174 47.3675 49.8426 46.2423C50.9678 45.117 51.6 43.5909 51.6 41.9996V23.9996C51.6 22.4083 50.9678 20.8822 49.8426 19.757C48.7174 18.6318 47.1913 17.9996 45.6 17.9996H14.1C13.7022 17.9996 13.3206 17.8416 13.0393 17.5603C12.758 17.279 12.6 16.8974 12.6 16.4996C12.6 16.1018 12.758 15.7203 13.0393 15.439C13.3206 15.1577 13.7022 14.9996 14.1 14.9996H18.507L20.607 11.9996H14.1ZM41.1 32.9996H44.1C44.4978 32.9996 44.8793 33.1576 45.1606 33.439C45.4419 33.7203 45.6 34.1018 45.6 34.4996C45.6 34.8974 45.4419 35.279 45.1606 35.5603C44.8793 35.8416 44.4978 35.9996 44.1 35.9996H41.1C40.7022 35.9996 40.3206 35.8416 40.0393 35.5603C39.758 35.279 39.6 34.8974 39.6 34.4996C39.6 34.1018 39.758 33.7203 40.0393 33.439C40.3206 33.1576 40.7022 32.9996 41.1 32.9996Z" fill="white"/>
</svg>
