<svg width="60" height="60" viewBox="0 0 60 60" fill="none" xmlns="http://www.w3.org/2000/svg">
<path d="M12.5 32.5L16.25 21.25H43.75L47.5 32.5M43.75 45C42.7554 45 41.8016 44.6049 41.0984 43.9016C40.3951 43.1984 40 42.2446 40 41.25C40 40.2554 40.3951 39.3016 41.0984 38.5984C41.8016 37.8951 42.7554 37.5 43.75 37.5C44.7446 37.5 45.6984 37.8951 46.4016 38.5984C47.1049 39.3016 47.5 40.2554 47.5 41.25C47.5 42.2446 47.1049 43.1984 46.4016 43.9016C45.6984 44.6049 44.7446 45 43.75 45ZM16.25 45C15.2554 45 14.3016 44.6049 13.5983 43.9016C12.8951 43.1984 12.5 42.2446 12.5 41.25C12.5 40.2554 12.8951 39.3016 13.5983 38.5984C14.3016 37.8951 15.2554 37.5 16.25 37.5C17.2446 37.5 18.1984 37.8951 18.9017 38.5984C19.6049 39.3016 20 40.2554 20 41.25C20 42.2446 19.6049 43.1984 18.9017 43.9016C18.1984 44.6049 17.2446 45 16.25 45ZM47.3 20C46.8 18.55 45.4 17.5 43.75 17.5H16.25C14.6 17.5 13.2 18.55 12.7 20L7.5 35V55C7.5 55.663 7.76339 56.2989 8.23223 56.7678C8.70107 57.2366 9.33696 57.5 10 57.5H12.5C13.163 57.5 13.7989 57.2366 14.2678 56.7678C14.7366 56.2989 15 55.663 15 55V52.5H45V55C45 55.663 45.2634 56.2989 45.7322 56.7678C46.2011 57.2366 46.837 57.5 47.5 57.5H50C50.663 57.5 51.2989 57.2366 51.7678 56.7678C52.2366 56.2989 52.5 55.663 52.5 55V35M17.5 12.5C18.4946 12.5 19.4484 12.1049 20.1517 11.4017C20.8549 10.6984 21.25 9.74456 21.25 8.75C21.25 6.25 17.5 2 17.5 2C17.5 2 13.75 6.25 13.75 8.75C13.75 9.74456 14.1451 10.6984 14.8483 11.4017C15.5516 12.1049 16.5054 12.5 17.5 12.5ZM30 12.5C30.9946 12.5 31.9484 12.1049 32.6517 11.4017C33.3549 10.6984 33.75 9.74456 33.75 8.75C33.75 6.25 30 2 30 2C30 2 26.25 6.25 26.25 8.75C26.25 9.74456 26.6451 10.6984 27.3483 11.4017C28.0516 12.1049 29.0054 12.5 30 12.5ZM42.5 12.5C43.4946 12.5 44.4484 12.1049 45.1516 11.4017C45.8549 10.6984 46.25 9.74456 46.25 8.75C46.25 6.25 42.5 2 42.5 2C42.5 2 38.75 6.25 38.75 8.75C38.75 9.74456 39.1451 10.6984 39.8484 11.4017C40.5516 12.1049 41.5054 12.5 42.5 12.5Z" fill="white"/>
</svg>
