<svg width="58" height="64" viewBox="0 0 58 64" fill="none" xmlns="http://www.w3.org/2000/svg">
<path d="M12.9375 19.3122C10.3787 19.3122 8.30875 17.0364 8.30875 14.2234C8.30875 12.8737 8.79642 11.5794 9.66448 10.625C10.5325 9.6707 11.7099 9.13456 12.9375 9.13456C15.4963 9.13456 17.5662 11.4103 17.5662 14.2234C17.5662 15.573 17.0786 16.8674 16.2105 17.8217C15.3425 18.776 14.1651 19.3122 12.9375 19.3122ZM12.9375 0C5.75 0 0 6.32149 0 14.2234C0 24.8751 12.9375 40.6472 12.9375 40.6472C12.9375 40.6472 25.875 24.8751 25.875 14.2234C25.875 6.32149 20.125 0 12.9375 0ZM44.5625 19.3122C43.3349 19.3122 42.1575 18.776 41.2895 17.8217C40.4214 16.8674 39.9338 15.573 39.9338 14.2234C39.9338 13.5551 40.0535 12.8934 40.2861 12.276C40.5187 11.6586 40.8597 11.0976 41.2895 10.625C41.7193 10.1525 42.2296 9.77765 42.7912 9.52192C43.3527 9.26618 43.9546 9.13456 44.5625 9.13456C45.1704 9.13456 45.7723 9.26618 46.3338 9.52192C46.8954 9.77765 47.4057 10.1525 47.8355 10.625C48.2653 11.0976 48.6063 11.6586 48.8389 12.276C49.0715 12.8934 49.1913 13.5551 49.1913 14.2234C49.1913 15.573 48.7036 16.8674 47.8355 17.8217C46.9675 18.776 45.7901 19.3122 44.5625 19.3122ZM44.5625 0C37.375 0 31.625 6.32149 31.625 14.2234C31.625 24.8751 44.5625 40.6472 44.5625 40.6472C44.5625 40.6472 57.5 24.8751 57.5 14.2234C57.5 6.32149 51.75 0 44.5625 0ZM44.5625 44.2505C40.9113 44.2505 37.6625 46.779 36.455 50.5719H21.045C20.2832 48.2063 18.6995 46.2692 16.6409 45.185C14.5823 44.1008 12.2167 43.958 10.0625 44.7878C8.9918 45.2002 8.00554 45.8406 7.1601 46.6724C6.31467 47.5042 5.62664 48.511 5.13534 49.6353C4.64405 50.7595 4.35913 51.9792 4.29687 53.2246C4.23461 54.4701 4.39623 55.7167 4.7725 56.8934C5.54463 59.2652 7.13903 61.2048 9.20752 62.2885C11.276 63.3722 13.6505 63.5121 15.8125 62.6776C18.2563 61.7294 20.125 59.5801 21.045 56.8934H36.4837C38.065 61.8242 43.01 64.416 47.4375 62.6776C48.5115 62.2694 49.5015 61.6319 50.3506 60.8017C51.1998 59.9715 51.8913 58.9651 52.3856 57.8402C52.8798 56.7152 53.167 55.494 53.2306 54.2467C53.2942 52.9994 53.133 51.7506 52.7563 50.5719C51.52 46.779 48.2425 44.2505 44.5625 44.2505ZM44.5625 58.4738C43.4188 58.4738 42.3219 57.9743 41.5131 57.0852C40.7044 56.196 40.25 54.9901 40.25 53.7327C40.25 52.4753 40.7044 51.2693 41.5131 50.3802C42.3219 49.4911 43.4188 48.9916 44.5625 48.9916C45.7062 48.9916 46.8031 49.4911 47.6119 50.3802C48.4206 51.2693 48.875 52.4753 48.875 53.7327C48.875 54.9901 48.4206 56.196 47.6119 57.0852C46.8031 57.9743 45.7062 58.4738 44.5625 58.4738Z" fill="#F8F8F8"/>
</svg>
